<svg width="44" height="37" viewBox="0 0 44 37" fill="none" xmlns="http://www.w3.org/2000/svg">
<path d="M29.7729 5.70652L16.2133 22.2795C15.5626 23.0747 15.6204 24.2336 16.347 24.9601L26.0307 34.6439C26.8674 35.4806 28.2436 35.412 28.9929 34.4962L42.5525 17.9233C43.2032 17.128 43.1454 15.9691 42.4188 15.2426L32.7351 5.55878C31.8984 4.7221 30.5222 4.79074 29.7729 5.70652Z" fill="#242EF2" stroke="#242EF2"/>
<path d="M19.6966 4.19571L3.50678 18.2107C2.72992 18.8832 2.58904 20.0349 3.18091 20.8748L11.0695 32.0696C11.751 33.0368 13.1187 33.2041 14.0133 32.4296L30.2031 18.4147C30.9799 17.7422 31.1208 16.5905 30.529 15.7505L22.6404 4.5558C21.9588 3.58857 20.5912 3.42128 19.6966 4.19571Z" fill="#A324F2" stroke="#A324F2"/>
</svg>
